<svg width="29" height="29" viewBox="0 0 29 29" fill="none" xmlns="http://www.w3.org/2000/svg">
<path d="M20.6021 27.88C19.4179 29.0279 18.125 28.8467 16.8804 28.3029C15.5633 27.7471 14.355 27.7229 12.9654 28.3029C11.2254 29.0521 10.3071 28.8346 9.26791 27.88C3.37124 21.8021 4.24125 12.5463 10.9354 12.2079C12.5667 12.2925 13.7025 13.1021 14.6571 13.1746C16.0829 12.8846 17.4483 12.0508 18.9708 12.1596C20.7954 12.3046 22.1729 13.0296 23.0792 14.3346C19.3092 16.5942 20.2033 21.5604 23.6592 22.95C22.9704 24.7625 22.0762 26.5629 20.59 27.8921L20.6021 27.88ZM14.5362 12.1354C14.355 9.44083 16.5421 7.2175 19.0554 7C19.4058 10.1175 16.2279 12.4375 14.5362 12.1354Z" fill="black"/>
</svg>
