<svg width="29" height="29" viewBox="0 0 29 29" fill="none" xmlns="http://www.w3.org/2000/svg">
<g clip-path="url(#clip0_17_3)">
<path d="M10.1024 0.953816C7.20487 1.959 4.70602 3.86688 2.97293 6.39721C1.23983 8.92754 0.363835 11.947 0.473607 15.0119C0.583378 18.0769 1.67313 21.0259 3.5828 23.4258C5.49247 25.8257 8.1214 27.5499 11.0834 28.3452C13.4848 28.9649 16.0008 28.9921 18.415 28.4245C20.6021 27.9333 22.624 26.8824 24.283 25.375C26.0096 23.7581 27.2628 21.7012 27.908 19.4255C28.6092 16.9506 28.734 14.348 28.2727 11.8175H14.7877V17.4113H22.5973C22.4413 18.3035 22.1068 19.155 21.614 19.9149C21.1211 20.6748 20.48 21.3275 19.7291 21.8338C18.7754 22.4646 17.7004 22.8891 16.573 23.0799C15.4424 23.2901 14.2826 23.2901 13.152 23.0799C12.006 22.843 10.9219 22.37 9.96875 21.6911C8.43752 20.6072 7.28778 19.0673 6.68359 17.2912C6.06919 15.4819 6.06919 13.5203 6.68359 11.711C7.11367 10.4427 7.82464 9.288 8.76343 8.33295C9.83777 7.21996 11.1979 6.42439 12.6946 6.03352C14.1914 5.64265 15.7668 5.6716 17.2482 6.11717C18.4054 6.4724 19.4636 7.09306 20.3385 7.92967C21.2191 7.05363 22.0982 6.17533 22.9757 5.29475C23.4288 4.82124 23.9227 4.37038 24.3691 3.88553C23.0336 2.64279 21.4661 1.67577 19.7563 1.03991C16.6426 -0.0906599 13.2357 -0.121043 10.1024 0.953816Z" fill="white"/>
<path d="M10.1024 0.953818C13.2355 -0.121771 16.6423 -0.0921877 19.7562 1.03765C21.4664 1.67783 23.0332 2.6495 24.3668 3.89686C23.9137 4.38171 23.4356 4.83483 22.9734 5.30608C22.0944 6.18363 21.2161 7.05816 20.3385 7.92967C19.4636 7.09306 18.4054 6.47241 17.2482 6.11718C15.7673 5.67003 14.1919 5.63942 12.6948 6.02869C11.1977 6.41795 9.83669 7.21206 8.76117 8.32389C7.82237 9.27893 7.1114 10.4337 6.68132 11.7019L1.98468 8.06561C3.66579 4.73188 6.57653 2.18184 10.1024 0.953818Z" fill="#E33629"/>
<path d="M0.738573 11.668C0.991011 10.4169 1.41011 9.20528 1.98467 8.06561L6.68131 11.711C6.0669 13.5203 6.0669 15.4819 6.68131 17.2912C5.11652 18.4996 3.55097 19.714 1.98467 20.9344C0.546336 18.0713 0.10767 14.8093 0.738573 11.668Z" fill="#F8BD00"/>
<path d="M14.7878 11.8152H28.2728C28.734 14.3458 28.6092 16.9484 27.908 19.4232C27.2628 21.699 26.0096 23.7559 24.283 25.3727C22.7673 24.1901 21.2448 23.0165 19.7291 21.8338C20.4805 21.327 21.1219 20.6736 21.6148 19.9129C22.1076 19.1522 22.4419 18.2998 22.5974 17.4068H14.7878C14.7855 15.5445 14.7878 13.6799 14.7878 11.8152Z" fill="#587DBD"/>
<path d="M1.98242 20.9344C3.54872 19.7261 5.11427 18.5117 6.67906 17.2913C7.28445 19.068 8.43584 20.6079 9.96875 21.6911C10.9249 22.3669 12.0113 22.836 13.1587 23.0686C14.2894 23.2788 15.4492 23.2788 16.5798 23.0686C17.7072 22.8778 18.7822 22.4533 19.7359 21.8225C21.2516 23.0052 22.7741 24.1788 24.2898 25.3614C22.6311 26.8697 20.6091 27.9213 18.4218 28.4132C16.0076 28.9808 13.4916 28.9536 11.0902 28.3339C9.19096 27.8268 7.41692 26.9328 5.8793 25.7081C4.25181 24.4159 2.92255 22.7876 1.98242 20.9344Z" fill="#319F43"/>
</g>
<defs>
<clipPath id="clip0_17_3">
<rect width="29" height="29" rx="14.5" fill="white"/>
</clipPath>
</defs>
</svg>
